<?xml version="1.0" encoding="utf-8"?>
<!-- Generator: Adobe Illustrator 28.1.0, SVG Export Plug-In . SVG Version: 6.00 Build 0)  -->
<svg version="1.1" id="Layer_1" xmlns="http://www.w3.org/2000/svg" xmlns:xlink="http://www.w3.org/1999/xlink" x="0px" y="0px"
	 viewBox="0 0 74 100" enable-background="new 0 0 74 100" xml:space="preserve">
<g>
	<g id="frame">
		<rect x="0" y="0" fill="none" width="74" height="100"/>
	</g>
	<g id="shape">
		<path fill="#006837" d="M29,100h2.3h11.3H45v-3h-2.3v-9.6c3.7-1,7.2-2.9,10-5.8v-50h17.8v2.5h3v-2.5v-9.2v-2.3h-3v2.3H52.7v-4
			c-2.9-2.9-6.4-4.8-10-5.8V3H45V0l-2.3,0L31.3,0L29,0v3h2.3v9.6c-3.7,1-7.2,2.9-10,5.8v50H3.5V66h-3v2.4v9.2V80h3v-2.4h17.8v4
			c2.9,2.9,6.4,4.8,10,5.8V97H29V100z"/>
	</g>
	<g id="dark">
		<path fill="#009245" d="M41.7,100V86.7c3.8-0.8,7.4-2.7,10.4-5.5V30.9h21.5v-7.7H52.1v-4.3c-3-2.9-6.6-4.7-10.4-5.5V0l-9.4,0v13.3
			c-3.8,0.8-7.4,2.7-10.4,5.5v50.2H0.5v7.7h21.5v4.3c3,2.9,6.6,4.7,10.4,5.5V100H41.7z"/>
	</g>
	<g id="light">
		<rect x="33.5" y="0" fill="#96D48D" width="7.1" height="100"/>
		<rect x="33.5" y="0" fill="#96D48D" width="7.1" height="100"/>
		<path fill="#96D48D" d="M51.4,80.8V30.1h22.1v-6.2H51.4v-4.7c-2.8-2.6-6.2-4.3-9.7-5.1v71.9C45.2,85.1,48.6,83.4,51.4,80.8z"/>
		<path fill="#96D48D" d="M32.3,85.9V14.1c-3.5,0.8-6.9,2.5-9.7,5.1v50.7H0.5v6.2h22.1v4.7C25.4,83.4,28.8,85.1,32.3,85.9z"/>
	</g>
	<g id="shadow">
		<path fill="#29ABE2" d="M50.7,80.2V29.4h22.8v-4.7H50.7v-4.9c-2.6-2.4-5.7-4-9-4.8v70C45,84.2,48.1,82.6,50.7,80.2z"/>
		<path fill="#29ABE2" d="M32.3,85V15c-3.3,0.8-6.4,2.4-9,4.8v50.8H0.5v4.7h22.8v4.9C25.9,82.6,29,84.2,32.3,85z"/>
	</g>
	<g id="hlight">
		<rect x="34.5" y="0" fill="#FFFFFF" width="4.9" height="100"/>
	</g>
</g>
</svg>
