<svg xmlns="http://www.w3.org/2000/svg" viewBox="0 0 936 740" width="936" height="740">
  <rect width="936" height="740" fill="#f1f5f9"/>
  <text x="468" y="40" text-anchor="middle" font-family="Segoe UI,sans-serif" font-size="24" font-weight="600" fill="#0f172a">Floor 12 — Wing 3</text>
  <text x="468" y="62" text-anchor="middle" font-family="Segoe UI,sans-serif" font-size="13" fill="#64748b">Rooms 1251–1275</text>
  <rect id="room_1251" x="72" y="72" width="152" height="108" rx="4" fill="#dbeafe" stroke="#3b82f6" stroke-width="1.5"/>
  <text x="148" y="126" text-anchor="middle" dominant-baseline="middle" font-family="Segoe UI,sans-serif" font-size="18" fill="#1e3a8a">1251</text>
  <rect id="room_1252" x="232" y="72" width="152" height="108" rx="4" fill="#dbeafe" stroke="#3b82f6" stroke-width="1.5"/>
  <text x="308" y="126" text-anchor="middle" dominant-baseline="middle" font-family="Segoe UI,sans-serif" font-size="18" fill="#1e3a8a">1252</text>
  <rect id="room_1253" x="392" y="72" width="152" height="108" rx="4" fill="#dbeafe" stroke="#3b82f6" stroke-width="1.5"/>
  <text x="468" y="126" text-anchor="middle" dominant-baseline="middle" font-family="Segoe UI,sans-serif" font-size="18" fill="#1e3a8a">1253</text>
  <rect id="room_1254" x="552" y="72" width="152" height="108" rx="4" fill="#dbeafe" stroke="#3b82f6" stroke-width="1.5"/>
  <text x="628" y="126" text-anchor="middle" dominant-baseline="middle" font-family="Segoe UI,sans-serif" font-size="18" fill="#1e3a8a">1254</text>
  <rect id="room_1255" x="712" y="72" width="152" height="108" rx="4" fill="#dbeafe" stroke="#3b82f6" stroke-width="1.5"/>
  <text x="788" y="126" text-anchor="middle" dominant-baseline="middle" font-family="Segoe UI,sans-serif" font-size="18" fill="#1e3a8a">1255</text>
  <rect id="room_1256" x="72" y="188" width="152" height="108" rx="4" fill="#dbeafe" stroke="#3b82f6" stroke-width="1.5"/>
  <text x="148" y="242" text-anchor="middle" dominant-baseline="middle" font-family="Segoe UI,sans-serif" font-size="18" fill="#1e3a8a">1256</text>
  <rect id="room_1257" x="232" y="188" width="152" height="108" rx="4" fill="#dbeafe" stroke="#3b82f6" stroke-width="1.5"/>
  <text x="308" y="242" text-anchor="middle" dominant-baseline="middle" font-family="Segoe UI,sans-serif" font-size="18" fill="#1e3a8a">1257</text>
  <rect id="room_1258" x="392" y="188" width="152" height="108" rx="4" fill="#dbeafe" stroke="#3b82f6" stroke-width="1.5"/>
  <text x="468" y="242" text-anchor="middle" dominant-baseline="middle" font-family="Segoe UI,sans-serif" font-size="18" fill="#1e3a8a">1258</text>
  <rect id="room_1259" x="552" y="188" width="152" height="108" rx="4" fill="#dbeafe" stroke="#3b82f6" stroke-width="1.5"/>
  <text x="628" y="242" text-anchor="middle" dominant-baseline="middle" font-family="Segoe UI,sans-serif" font-size="18" fill="#1e3a8a">1259</text>
  <rect id="room_1260" x="712" y="188" width="152" height="108" rx="4" fill="#dbeafe" stroke="#3b82f6" stroke-width="1.5"/>
  <text x="788" y="242" text-anchor="middle" dominant-baseline="middle" font-family="Segoe UI,sans-serif" font-size="18" fill="#1e3a8a">1260</text>
  <rect id="room_1261" x="72" y="304" width="152" height="108" rx="4" fill="#dbeafe" stroke="#3b82f6" stroke-width="1.5"/>
  <text x="148" y="358" text-anchor="middle" dominant-baseline="middle" font-family="Segoe UI,sans-serif" font-size="18" fill="#1e3a8a">1261</text>
  <rect id="room_1262" x="232" y="304" width="152" height="108" rx="4" fill="#dbeafe" stroke="#3b82f6" stroke-width="1.5"/>
  <text x="308" y="358" text-anchor="middle" dominant-baseline="middle" font-family="Segoe UI,sans-serif" font-size="18" fill="#1e3a8a">1262</text>
  <rect id="room_1263" x="392" y="304" width="152" height="108" rx="4" fill="#dbeafe" stroke="#3b82f6" stroke-width="1.5"/>
  <text x="468" y="358" text-anchor="middle" dominant-baseline="middle" font-family="Segoe UI,sans-serif" font-size="18" fill="#1e3a8a">1263</text>
  <rect id="room_1264" x="552" y="304" width="152" height="108" rx="4" fill="#dbeafe" stroke="#3b82f6" stroke-width="1.5"/>
  <text x="628" y="358" text-anchor="middle" dominant-baseline="middle" font-family="Segoe UI,sans-serif" font-size="18" fill="#1e3a8a">1264</text>
  <rect id="room_1265" x="712" y="304" width="152" height="108" rx="4" fill="#dbeafe" stroke="#3b82f6" stroke-width="1.5"/>
  <text x="788" y="358" text-anchor="middle" dominant-baseline="middle" font-family="Segoe UI,sans-serif" font-size="18" fill="#1e3a8a">1265</text>
  <rect id="room_1266" x="72" y="420" width="152" height="108" rx="4" fill="#dbeafe" stroke="#3b82f6" stroke-width="1.5"/>
  <text x="148" y="474" text-anchor="middle" dominant-baseline="middle" font-family="Segoe UI,sans-serif" font-size="18" fill="#1e3a8a">1266</text>
  <rect id="room_1267" x="232" y="420" width="152" height="108" rx="4" fill="#dbeafe" stroke="#3b82f6" stroke-width="1.5"/>
  <text x="308" y="474" text-anchor="middle" dominant-baseline="middle" font-family="Segoe UI,sans-serif" font-size="18" fill="#1e3a8a">1267</text>
  <rect id="room_1268" x="392" y="420" width="152" height="108" rx="4" fill="#dbeafe" stroke="#3b82f6" stroke-width="1.5"/>
  <text x="468" y="474" text-anchor="middle" dominant-baseline="middle" font-family="Segoe UI,sans-serif" font-size="18" fill="#1e3a8a">1268</text>
  <rect id="room_1269" x="552" y="420" width="152" height="108" rx="4" fill="#dbeafe" stroke="#3b82f6" stroke-width="1.5"/>
  <text x="628" y="474" text-anchor="middle" dominant-baseline="middle" font-family="Segoe UI,sans-serif" font-size="18" fill="#1e3a8a">1269</text>
  <rect id="room_1270" x="712" y="420" width="152" height="108" rx="4" fill="#dbeafe" stroke="#3b82f6" stroke-width="1.5"/>
  <text x="788" y="474" text-anchor="middle" dominant-baseline="middle" font-family="Segoe UI,sans-serif" font-size="18" fill="#1e3a8a">1270</text>
  <rect id="room_1271" x="72" y="536" width="152" height="108" rx="4" fill="#dbeafe" stroke="#3b82f6" stroke-width="1.5"/>
  <text x="148" y="590" text-anchor="middle" dominant-baseline="middle" font-family="Segoe UI,sans-serif" font-size="18" fill="#1e3a8a">1271</text>
  <rect id="room_1272" x="232" y="536" width="152" height="108" rx="4" fill="#dbeafe" stroke="#3b82f6" stroke-width="1.5"/>
  <text x="308" y="590" text-anchor="middle" dominant-baseline="middle" font-family="Segoe UI,sans-serif" font-size="18" fill="#1e3a8a">1272</text>
  <rect id="room_1273" x="392" y="536" width="152" height="108" rx="4" fill="#dbeafe" stroke="#3b82f6" stroke-width="1.5"/>
  <text x="468" y="590" text-anchor="middle" dominant-baseline="middle" font-family="Segoe UI,sans-serif" font-size="18" fill="#1e3a8a">1273</text>
  <rect id="room_1274" x="552" y="536" width="152" height="108" rx="4" fill="#dbeafe" stroke="#3b82f6" stroke-width="1.5"/>
  <text x="628" y="590" text-anchor="middle" dominant-baseline="middle" font-family="Segoe UI,sans-serif" font-size="18" fill="#1e3a8a">1274</text>
  <rect id="room_1275" x="712" y="536" width="152" height="108" rx="4" fill="#dbeafe" stroke="#3b82f6" stroke-width="1.5"/>
  <text x="788" y="590" text-anchor="middle" dominant-baseline="middle" font-family="Segoe UI,sans-serif" font-size="18" fill="#1e3a8a">1275</text>
</svg>