0
SECTION
2
HEADER
0
ENDSEC
0
SECTION
2
TABLES
0
TABLE
2
LAYER
70
6
0
LAYER
2
SITE
70
0
62
8
6
CONTINUOUS
0
LAYER
2
BUILDING
70
0
62
5
6
CONTINUOUS
0
LAYER
2
VILLA
70
0
62
3
6
CONTINUOUS
0
LAYER
2
POOL
70
0
62
4
6
CONTINUOUS
0
LAYER
2
ANNOTATIONS
70
0
62
7
6
CONTINUOUS
0
ENDTAB
0
ENDSEC
0
SECTION
2
ENTITIES
0
LWPOLYLINE
8
SITE
90
4
70
1
10
-80.2000
20
-72.3500
10
80.2000
20
-72.3500
10
80.2000
20
76.3500
10
-80.2000
20
76.3500
0
LWPOLYLINE
8
BUILDING
90
4
70
1
10
-40.0000
20
-50.0000
10
40.0000
20
-50.0000
10
40.0000
20
46.0000
10
-40.0000
20
46.0000
0
TEXT
8
ANNOTATIONS
10
0.0000
20
49.0000
40
3.0000
1
Main tower 200 rooms (67+67+66/floor)
0
LWPOLYLINE
8
VILLA
90
4
70
1
10
-71.2000
20
-31.7500
10
-46.0000
20
-31.7500
10
-46.0000
20
0.9500
10
-71.2000
20
0.9500
0
TEXT
8
ANNOTATIONS
10
-58.6000
20
2.9500
40
2.5000
1
Villa North (501–525)
0
LWPOLYLINE
8
VILLA
90
4
70
1
10
46.0000
20
-16.3500
10
71.2000
20
-16.3500
10
71.2000
20
16.3500
10
46.0000
20
16.3500
0
TEXT
8
ANNOTATIONS
10
58.6000
20
18.3500
40
2.5000
1
Villa East (601–625)
0
LWPOLYLINE
8
VILLA
90
4
70
1
10
-71.2000
20
7.8500
10
-46.0000
20
7.8500
10
-46.0000
20
40.5500
10
-71.2000
20
40.5500
0
TEXT
8
ANNOTATIONS
10
-58.6000
20
42.5500
40
2.5000
1
Villa South (701–725)
0
LWPOLYLINE
8
POOL
90
4
70
1
10
-67.8600
20
-9.0000
10
-51.8600
20
-9.0000
10
-51.8600
20
5.0000
10
-67.8600
20
5.0000
0
TEXT
8
ANNOTATIONS
10
-59.8600
20
7.0000
40
2.5000
1
Therapy pool (exterior)
0
TEXT
8
ANNOTATIONS
10
-76.2000
20
70.3500
40
4
1
Assisted Living campus — 275 units
0
ENDSEC
0
EOF
