<?xml version="1.0" encoding="UTF-8"?>
<svg xmlns="http://www.w3.org/2000/svg" width="100" height="100" version="1.1" viewBox="0 0 100 100">
  <!-- Generator: Adobe Illustrator 28.7.1, SVG Export Plug-In . SVG Version: 1.2.0 Build 142)  -->
  <g>
    <g id="Layer_1">
      <g>
        <g id="shape">
          <path d="M50,13.1c3.5,0,7,.4,10.4,1.3V0h33.1v56.6c-.1,23.9-19.6,43.4-43.5,43.4S6.6,80.5,6.6,56.6,26.1,13.1,50,13.1ZM90.5,2.9h-27.2v15.3l-1.9-.5c-3.7-1.1-7.5-1.7-11.4-1.7-22.3,0-40.5,18.2-40.5,40.6s18.2,40.5,40.5,40.5,40.5-18.2,40.5-40.5V2.9Z" fill="gray"/>
        </g>
        <g id="dark">
          <path d="M50,36.8c10.9,0,19.7,8.9,19.7,19.7s-8.8,19.8-19.7,19.8-19.7-8.8-19.7-19.7,8.8-19.8,19.7-19.8ZM50,38.8c-9.8,0-17.7,8-17.7,17.7s8,17.7,17.7,17.7,17.7-8,17.7-17.7-7.9-17.7-17.7-17.7Z" fill="gray"/>
          <path d="M63.3,15.2v3.2c15.8,5.5,27.2,20.6,27.2,38.2h0v-15.8c-4.7-12.1-14.7-21.6-27.2-25.6Z" fill="gray"/>
        </g>
      </g>
    </g>
  </g>
</svg>