<?xml version="1.0" encoding="utf-8"?>
<!-- Generator: Adobe Illustrator 17.1.0, SVG Export Plug-In . SVG Version: 6.00 Build 0)  -->
<!DOCTYPE svg PUBLIC "-//W3C//DTD SVG 1.1//EN" "http://www.w3.org/Graphics/SVG/1.1/DTD/svg11.dtd">
<svg version="1.1" id="Layer_1" xmlns="http://www.w3.org/2000/svg" xmlns:xlink="http://www.w3.org/1999/xlink" x="0px" y="0px"
	 viewBox="0 0 100 100" enable-background="new 0 0 100 100" xml:space="preserve">
<g>
	
		<linearGradient id="SVGID_1_" gradientUnits="userSpaceOnUse" x1="50.65" y1="-395.6413" x2="50.65" y2="-404.1699" gradientTransform="matrix(1 0 0 -1 0 -308)">
		<stop  offset="0" style="stop-color:#CCCCCC"/>
		<stop  offset="0.7668" style="stop-color:#CCCCCC;stop-opacity:0.1413"/>
		<stop  offset="0.893" style="stop-color:#CCCCCC;stop-opacity:0"/>
	</linearGradient>
	<line fill="none" stroke="url(#SVGID_1_)" stroke-width="0.3189" stroke-miterlimit="10" x1="93.7" y1="87.8" x2="7.6" y2="96"/>
	<g>
		
			<ellipse transform="matrix(0.3755 0.9268 -0.9268 0.3755 113.1123 -16.5606)" fill="#CCCCCC" cx="68.8" cy="75.7" rx="3.4" ry="6.6"/>
		
			<ellipse transform="matrix(0.3755 0.9268 -0.9268 0.3755 113.8798 -16.4697)" fill="#999999" cx="69.2" cy="76.3" rx="3.4" ry="6.6"/>
		
			<linearGradient id="SVGID_2_" gradientUnits="userSpaceOnUse" x1="-19.3433" y1="-372.208" x2="-10.7106" y2="-369.3305" gradientTransform="matrix(0.9862 -0.1658 -0.1658 -0.9862 24.3563 -286.9636)">
			<stop  offset="5.600000e-003" style="stop-color:#333333"/>
			<stop  offset="6.460000e-002" style="stop-color:#4F4F4F"/>
			<stop  offset="0.1622" style="stop-color:#777777"/>
			<stop  offset="0.2664" style="stop-color:#999999"/>
			<stop  offset="0.3765" style="stop-color:#B5B5B5"/>
			<stop  offset="0.4948" style="stop-color:#CBCBCB"/>
			<stop  offset="0.6251" style="stop-color:#DADADA"/>
			<stop  offset="0.7767" style="stop-color:#E3E3E3"/>
			<stop  offset="1" style="stop-color:#E6E6E6"/>
		</linearGradient>
		<path fill="url(#SVGID_2_)" d="M69,86.3c1,1.9,3.6,2.6,5.9,1.4c2.3-1.2,3.4-3.7,2.4-5.6l-3.6-6.4c-1-1.9-3.6-2.6-5.9-1.4
			c-2.3,1.2-3.4,3.7-2.4,5.6L69,86.3z"/>
		
			<ellipse transform="matrix(0.4484 0.8938 -0.8938 0.4484 115.7005 -18.9508)" fill="#CCCCCC" cx="73.2" cy="84.3" rx="3.9" ry="4.7"/>
		<path fill="none" stroke="#FFFFFF" stroke-width="0.3189" stroke-miterlimit="10" d="M71.4,80.7c2.3-1.2,5-0.5,5.9,1.4"/>
		
			<ellipse transform="matrix(0.4484 0.8938 -0.8938 0.4484 115.7005 -18.9508)" fill="#CCCCCC" stroke="#999999" stroke-width="0.1594" stroke-miterlimit="10" cx="73.2" cy="84.3" rx="2.9" ry="3.4"/>
		<path fill="none" stroke="#FFFFFF" stroke-width="0.1594" stroke-miterlimit="10" d="M74.5,86.9c-1.7,0.8-3.6,0.4-4.3-1"/>
		<path fill="#E6E6E6" d="M75.6,84.2c0.4,0.9,0,2-1.1,2.5c-1,0.5-2.2,0.2-2.6-0.6l-0.6-0.9c-0.4-0.9,0-2,1.1-2.5
			c1-0.5,2.2-0.2,2.6,0.6L75.6,84.2z"/>
		
			<ellipse transform="matrix(0.4484 0.8938 -0.8938 0.4484 116.8543 -19.0268)" fill="#B3B3B3" cx="73.8" cy="85.2" rx="1.7" ry="2"/>
		<path fill="none" stroke="#FFFFFF" stroke-width="0.3189" stroke-miterlimit="10" d="M73,83.6c1-0.5,2.2-0.2,2.6,0.6"/>
		<path fill="#B3B3B3" d="M68.2,81.3c0.7-1.9,3-2.4,3-2.4l-2-2.8c-0.4-0.8-1.6-1.1-2.5-0.6s-1.4,1.6-1,2.4l0.6,0.6L68.2,81.3z"/>
		<path fill="#CCCCCC" d="M67.6,80.7c-0.4-0.8,0-1.9,1-2.4s2.1-0.2,2.5,0.6c0,0-2.3,0.5-3,2.4L67.6,80.7z"/>
	</g>
	<g>
		<path fill="#B3B3B3" d="M5.6,96c-0.5,0.1-1-0.2-1.2-0.8L0,80.2c-0.1-0.6,0.1-1.1,0.6-1.2l88.5-21.6c0.5-0.1,1,0.2,1.2,0.8
			l9.6,14.1c0.1,0.6-0.1,1.1-0.6,1.2L5.6,96"/>
		<g>
			<line fill="none" stroke="#4D4D4D" stroke-width="0.1594" stroke-miterlimit="10" x1="97.5" y1="71.6" x2="88" y2="57.8"/>
			<line fill="none" stroke="#4D4D4D" stroke-width="0.1594" stroke-miterlimit="10" x1="90.5" y1="73.3" x2="81.3" y2="59.4"/>
			<line fill="none" stroke="#4D4D4D" stroke-width="0.1594" stroke-miterlimit="10" x1="83.5" y1="75.1" x2="74.7" y2="61"/>
			<line fill="none" stroke="#4D4D4D" stroke-width="0.1594" stroke-miterlimit="10" x1="76.4" y1="76.8" x2="68" y2="62.7"/>
			<line fill="none" stroke="#4D4D4D" stroke-width="0.1594" stroke-miterlimit="10" x1="69.4" y1="78.5" x2="61.4" y2="64.3"/>
			<line fill="none" stroke="#4D4D4D" stroke-width="0.1594" stroke-miterlimit="10" x1="62.3" y1="80.2" x2="54.7" y2="65.9"/>
			<line fill="none" stroke="#4D4D4D" stroke-width="0.1594" stroke-miterlimit="10" x1="55.3" y1="81.9" x2="48.1" y2="67.6"/>
			<line fill="none" stroke="#4D4D4D" stroke-width="0.1594" stroke-miterlimit="10" x1="48.3" y1="83.6" x2="41.4" y2="69.2"/>
			<line fill="none" stroke="#4D4D4D" stroke-width="0.1594" stroke-miterlimit="10" x1="41.2" y1="85.3" x2="34.8" y2="70.8"/>
			<line fill="none" stroke="#4D4D4D" stroke-width="0.1594" stroke-miterlimit="10" x1="34.2" y1="87" x2="28.1" y2="72.4"/>
			<line fill="none" stroke="#4D4D4D" stroke-width="0.1594" stroke-miterlimit="10" x1="27.2" y1="88.7" x2="21.5" y2="74.1"/>
			<line fill="none" stroke="#4D4D4D" stroke-width="0.1594" stroke-miterlimit="10" x1="20.1" y1="90.4" x2="14.8" y2="75.7"/>
			<line fill="none" stroke="#4D4D4D" stroke-width="0.1594" stroke-miterlimit="10" x1="13.1" y1="92.1" x2="8.2" y2="77.3"/>
			<path fill="none" stroke="#4D4D4D" stroke-width="0.1594" stroke-miterlimit="10" d="M6.1,93.8L1.6,79"/>
		</g>
		
			<linearGradient id="SVGID_3_" gradientUnits="userSpaceOnUse" x1="51.4118" y1="-385.6762" x2="53.0177" y2="-397.8806" gradientTransform="matrix(1 0 0 -1 0 -308)">
			<stop  offset="5.600000e-003" style="stop-color:#5E5E5E"/>
			<stop  offset="7.000001e-003" style="stop-color:#5F5F5F"/>
			<stop  offset="0.1947" style="stop-color:#747474"/>
			<stop  offset="0.4019" style="stop-color:#838383"/>
			<stop  offset="0.6437" style="stop-color:#8C8C8C"/>
			<stop  offset="1" style="stop-color:#8F8F8F"/>
		</linearGradient>
		<path fill="url(#SVGID_3_)" d="M5.6,96c-0.5,0.1-1-0.2-1.2-0.8C4.3,94.6,4.5,94.1,5,94l93.8-22.5c0.5-0.1,1,0.2,1.2,0.8
			c0.2,0.6-0.1,1.1-0.6,1.2L5.6,96"/>
		<g>
			
				<ellipse transform="matrix(0.2969 0.9549 -0.9549 0.2969 94.7739 61.2927)" stroke="#CCCCCC" stroke-width="0.3189" stroke-miterlimit="10" cx="5.8" cy="95" rx="0.8" ry="1"/>
			
				<ellipse transform="matrix(0.2969 0.9549 -0.9549 0.2969 95.834 58.7094)" stroke="#CCCCCC" stroke-width="0.3189" stroke-miterlimit="10" cx="8" cy="94.4" rx="0.8" ry="1"/>
			
				<ellipse transform="matrix(0.2969 0.9549 -0.9549 0.2969 96.7729 56.2401)" stroke="#CCCCCC" stroke-width="0.3189" stroke-miterlimit="10" cx="10.2" cy="93.8" rx="0.8" ry="1"/>
			
				<ellipse transform="matrix(0.2969 0.9549 -0.9549 0.2969 97.7952 53.7698)" stroke="#CCCCCC" stroke-width="0.3189" stroke-miterlimit="10" cx="12.4" cy="93.3" rx="0.8" ry="1"/>
			
				<ellipse transform="matrix(0.2969 0.9549 -0.9549 0.2969 98.8564 51.1857)" stroke="#CCCCCC" stroke-width="0.3189" stroke-miterlimit="10" cx="14.7" cy="92.7" rx="0.8" ry="1"/>
			
				<ellipse transform="matrix(0.2969 0.9549 -0.9549 0.2969 99.8741 48.833)" stroke="#CCCCCC" stroke-width="0.3189" stroke-miterlimit="10" cx="16.8" cy="92.2" rx="0.8" ry="1"/>
			
				<ellipse transform="matrix(0.2969 0.9549 -0.9549 0.2969 101.0474 46.2877)" stroke="#CCCCCC" stroke-width="0.3189" stroke-miterlimit="10" cx="19.1" cy="91.8" rx="0.8" ry="1"/>
			
				<ellipse transform="matrix(0.2969 0.9549 -0.9549 0.2969 102.0689 43.8166)" stroke="#CCCCCC" stroke-width="0.3189" stroke-miterlimit="10" cx="21.3" cy="91.2" rx="0.8" ry="1"/>
			
				<ellipse transform="matrix(0.2969 0.9549 -0.9549 0.2969 103.1263 41.3511)" stroke="#CCCCCC" stroke-width="0.3189" stroke-miterlimit="10" cx="23.5" cy="90.7" rx="0.8" ry="1"/>
			
				<ellipse transform="matrix(0.2969 0.9549 -0.9549 0.2969 104.0303 38.877)" stroke="#CCCCCC" stroke-width="0.3189" stroke-miterlimit="10" cx="25.6" cy="90.1" rx="0.8" ry="1"/>
			
				<ellipse transform="matrix(0.2969 0.9549 -0.9549 0.2969 105.0912 36.2929)" stroke="#CCCCCC" stroke-width="0.3189" stroke-miterlimit="10" cx="27.9" cy="89.5" rx="0.8" ry="1"/>
			
				<ellipse transform="matrix(0.2969 0.9549 -0.9549 0.2969 106.1091 33.9404)" stroke="#CCCCCC" stroke-width="0.3189" stroke-miterlimit="10" cx="30" cy="89" rx="0.8" ry="1"/>
			
				<ellipse transform="matrix(0.2969 0.9549 -0.9549 0.2969 107.2823 31.3949)" stroke="#CCCCCC" stroke-width="0.3189" stroke-miterlimit="10" cx="32.3" cy="88.5" rx="0.8" ry="1"/>
			
				<ellipse transform="matrix(0.2969 0.9549 -0.9549 0.2969 108.3038 28.9239)" stroke="#CCCCCC" stroke-width="0.3189" stroke-miterlimit="10" cx="34.5" cy="88" rx="0.8" ry="1"/>
			
				<ellipse transform="matrix(0.2969 0.9549 -0.9549 0.2969 109.3611 26.4583)" stroke="#CCCCCC" stroke-width="0.3189" stroke-miterlimit="10" cx="36.7" cy="87.5" rx="0.8" ry="1"/>
			
				<ellipse transform="matrix(0.2969 0.9549 -0.9549 0.2969 110.3837 23.988)" stroke="#CCCCCC" stroke-width="0.3189" stroke-miterlimit="10" cx="38.9" cy="87" rx="0.8" ry="1"/>
			
				<ellipse transform="matrix(0.2969 0.9549 -0.9549 0.2969 111.5569 21.4428)" stroke="#CCCCCC" stroke-width="0.3189" stroke-miterlimit="10" cx="41.2" cy="86.5" rx="0.8" ry="1"/>
			
				<ellipse transform="matrix(0.2969 0.9549 -0.9549 0.2969 112.4947 18.9744)" stroke="#CCCCCC" stroke-width="0.3189" stroke-miterlimit="10" cx="43.4" cy="85.9" rx="0.8" ry="1"/>
			
				<ellipse transform="matrix(0.2969 0.9549 -0.9549 0.2969 113.5172 16.5024)" stroke="#CCCCCC" stroke-width="0.3189" stroke-miterlimit="10" cx="45.6" cy="85.3" rx="0.8" ry="1"/>
			
				<ellipse transform="matrix(0.2969 0.9549 -0.9549 0.2969 114.5775 13.919)" stroke="#CCCCCC" stroke-width="0.3189" stroke-miterlimit="10" cx="47.8" cy="84.8" rx="0.8" ry="1"/>
			
				<ellipse transform="matrix(0.2969 0.9549 -0.9549 0.2969 115.5998 11.4471)" stroke="#CCCCCC" stroke-width="0.3189" stroke-miterlimit="10" cx="50" cy="84.2" rx="0.8" ry="1"/>
			
				<ellipse transform="matrix(0.2969 0.9549 -0.9549 0.2969 116.6573 8.9832)" stroke="#CCCCCC" stroke-width="0.3189" stroke-miterlimit="10" cx="52.2" cy="83.7" rx="0.8" ry="1"/>
			
				<ellipse transform="matrix(0.2969 0.9549 -0.9549 0.2969 117.7907 6.5509)" stroke="#CCCCCC" stroke-width="0.3189" stroke-miterlimit="10" cx="54.4" cy="83.3" rx="0.8" ry="1"/>
			
				<ellipse transform="matrix(0.2969 0.9549 -0.9549 0.2969 118.852 3.9669)" stroke="#CCCCCC" stroke-width="0.3189" stroke-miterlimit="10" cx="56.7" cy="82.7" rx="0.8" ry="1"/>
			
				<ellipse transform="matrix(0.2969 0.9549 -0.9549 0.2969 119.7898 1.4982)" stroke="#CCCCCC" stroke-width="0.3189" stroke-miterlimit="10" cx="58.9" cy="82.1" rx="0.8" ry="1"/>
			
				<ellipse transform="matrix(0.2969 0.9549 -0.9549 0.2969 120.8124 -0.9737)" stroke="#CCCCCC" stroke-width="0.3189" stroke-miterlimit="10" cx="61.1" cy="81.6" rx="0.8" ry="1"/>
			
				<ellipse transform="matrix(0.2969 0.9549 -0.9549 0.2969 121.9847 -3.5181)" stroke="#CCCCCC" stroke-width="0.3189" stroke-miterlimit="10" cx="63.4" cy="81.1" rx="0.8" ry="1"/>
			
				<ellipse transform="matrix(0.2969 0.9549 -0.9549 0.2969 123.0042 -5.8706)" stroke="#CCCCCC" stroke-width="0.3189" stroke-miterlimit="10" cx="65.5" cy="80.6" rx="0.8" ry="1"/>
			
				<ellipse transform="matrix(0.2969 0.9549 -0.9549 0.2969 124.0644 -8.4541)" stroke="#CCCCCC" stroke-width="0.3189" stroke-miterlimit="10" cx="67.8" cy="80" rx="0.8" ry="1"/>
			
				<ellipse transform="matrix(0.2969 0.9549 -0.9549 0.2969 125.0868 -10.926)" stroke="#CCCCCC" stroke-width="0.3189" stroke-miterlimit="10" cx="70" cy="79.5" rx="0.8" ry="1"/>
			
				<ellipse transform="matrix(0.2969 0.9549 -0.9549 0.2969 126.1434 -13.3906)" stroke="#CCCCCC" stroke-width="0.3189" stroke-miterlimit="10" cx="72.2" cy="79" rx="0.8" ry="1"/>
			
				<ellipse transform="matrix(0.2969 0.9549 -0.9549 0.2969 127.1658 -15.8628)" stroke="#CCCCCC" stroke-width="0.3189" stroke-miterlimit="10" cx="74.4" cy="78.4" rx="0.8" ry="1"/>
			
				<ellipse transform="matrix(0.2969 0.9549 -0.9549 0.2969 128.2204 -18.41)" stroke="#CCCCCC" stroke-width="0.3189" stroke-miterlimit="10" cx="76.6" cy="77.9" rx="0.8" ry="1"/>
			
				<ellipse transform="matrix(0.2969 0.9549 -0.9549 0.2969 129.2391 -20.7637)" stroke="#CCCCCC" stroke-width="0.3189" stroke-miterlimit="10" cx="78.7" cy="77.4" rx="0.8" ry="1"/>
			
				<ellipse transform="matrix(0.2969 0.9549 -0.9549 0.2969 130.2995 -23.3467)" stroke="#CCCCCC" stroke-width="0.3189" stroke-miterlimit="10" cx="81" cy="76.8" rx="0.8" ry="1"/>
			
				<ellipse transform="matrix(0.2969 0.9549 -0.9549 0.2969 131.3606 -25.9307)" stroke="#CCCCCC" stroke-width="0.3189" stroke-miterlimit="10" cx="83.3" cy="76.2" rx="0.8" ry="1"/>
			
				<ellipse transform="matrix(0.2969 0.9549 -0.9549 0.2969 132.3785 -28.2832)" stroke="#CCCCCC" stroke-width="0.3189" stroke-miterlimit="10" cx="85.4" cy="75.8" rx="0.8" ry="1"/>
			
				<ellipse transform="matrix(0.2969 0.9549 -0.9549 0.2969 133.5514 -30.8286)" stroke="#CCCCCC" stroke-width="0.3189" stroke-miterlimit="10" cx="87.7" cy="75.3" rx="0.8" ry="1"/>
			
				<ellipse transform="matrix(0.2969 0.9549 -0.9549 0.2969 134.5737 -33.299)" stroke="#CCCCCC" stroke-width="0.3189" stroke-miterlimit="10" cx="89.9" cy="74.7" rx="0.8" ry="1"/>
			
				<ellipse transform="matrix(0.2969 0.9549 -0.9549 0.2969 135.6313 -35.7644)" stroke="#CCCCCC" stroke-width="0.3189" stroke-miterlimit="10" cx="92.1" cy="74.2" rx="0.8" ry="1"/>
			
				<ellipse transform="matrix(0.2969 0.9549 -0.9549 0.2969 136.5343 -38.2396)" stroke="#CCCCCC" stroke-width="0.3189" stroke-miterlimit="10" cx="94.2" cy="73.6" rx="0.8" ry="1"/>
			
				<ellipse transform="matrix(0.2969 0.9549 -0.9549 0.2969 137.5955 -40.8236)" stroke="#CCCCCC" stroke-width="0.3189" stroke-miterlimit="10" cx="96.5" cy="73" rx="0.8" ry="1"/>
			
				<ellipse transform="matrix(0.2969 0.9549 -0.9549 0.2969 138.6131 -43.1762)" stroke="#CCCCCC" stroke-width="0.3189" stroke-miterlimit="10" cx="98.6" cy="72.5" rx="0.8" ry="1"/>
		</g>
	</g>
	
		<linearGradient id="SVGID_4_" gradientUnits="userSpaceOnUse" x1="51.5326" y1="-382.7157" x2="51.5326" y2="-407.1359" gradientTransform="matrix(1 0 0 -1 0 -308)">
		<stop  offset="0" style="stop-color:#CCCCCC"/>
		<stop  offset="0.7668" style="stop-color:#CCCCCC;stop-opacity:0.1413"/>
		<stop  offset="0.893" style="stop-color:#CCCCCC;stop-opacity:0"/>
	</linearGradient>
	<polyline fill="none" stroke="url(#SVGID_4_)" stroke-width="0.3189" stroke-miterlimit="10" points="5.6,98.9 96,90.6 97.7,74.9 
		95.4,75.2 94.1,89 5.2,97.5 	"/>
	<polygon fill="#B3B3B3" points="96,90.6 97.7,74.9 95.4,75.2 94.1,89 	"/>
	
		<linearGradient id="SVGID_5_" gradientUnits="userSpaceOnUse" x1="91.15" y1="-384.4627" x2="91.15" y2="-394.4427" gradientTransform="matrix(1 0 0 -1 0 -308)">
		<stop  offset="0" style="stop-color:#CCCCCC"/>
		<stop  offset="0.7668" style="stop-color:#CCCCCC;stop-opacity:0.1413"/>
		<stop  offset="0.893" style="stop-color:#CCCCCC;stop-opacity:0"/>
	</linearGradient>
	
		<line fill="none" stroke="url(#SVGID_5_)" stroke-width="0.3189" stroke-miterlimit="10" x1="94.5" y1="86.3" x2="87.8" y2="76.5"/>
	
		<linearGradient id="SVGID_6_" gradientUnits="userSpaceOnUse" x1="87.9" y1="-385.7338" x2="87.9" y2="-397.3041" gradientTransform="matrix(1 0 0 -1 0 -308)">
		<stop  offset="0" style="stop-color:#CCCCCC"/>
		<stop  offset="0.7668" style="stop-color:#CCCCCC;stop-opacity:0.1413"/>
		<stop  offset="0.893" style="stop-color:#CCCCCC;stop-opacity:0"/>
	</linearGradient>
	
		<line fill="none" stroke="url(#SVGID_6_)" stroke-width="0.3189" stroke-miterlimit="10" x1="91.5" y1="89.2" x2="84.3" y2="77.8"/>
	
		<linearGradient id="SVGID_7_" gradientUnits="userSpaceOnUse" x1="2.6457" y1="-390.6882" x2="2.6457" y2="-407.0064" gradientTransform="matrix(1 0 0 -1 0 -308)">
		<stop  offset="0" style="stop-color:#CCCCCC"/>
		<stop  offset="0.7668" style="stop-color:#CCCCCC;stop-opacity:0.1413"/>
		<stop  offset="0.893" style="stop-color:#CCCCCC;stop-opacity:0"/>
	</linearGradient>
	<polyline fill="none" stroke="url(#SVGID_7_)" stroke-width="0.3189" stroke-miterlimit="10" points="0.8,82.7 0.6,85.4 4.7,98.9 	
		"/>
	
		<linearGradient id="SVGID_8_" gradientUnits="userSpaceOnUse" x1="57.5" y1="-392.2198" x2="57.5" y2="-399.0501" gradientTransform="matrix(1 0 0 -1 0 -308)">
		<stop  offset="0" style="stop-color:#CCCCCC"/>
		<stop  offset="0.7668" style="stop-color:#CCCCCC;stop-opacity:0.1413"/>
		<stop  offset="0.893" style="stop-color:#CCCCCC;stop-opacity:0"/>
	</linearGradient>
	<line fill="none" stroke="url(#SVGID_8_)" stroke-width="0.3189" stroke-miterlimit="10" x1="59" y1="91" x2="56" y2="84.3"/>
	
		<linearGradient id="SVGID_9_" gradientUnits="userSpaceOnUse" x1="66.45" y1="-393.1414" x2="66.45" y2="-397.6478" gradientTransform="matrix(1 0 0 -1 0 -308)">
		<stop  offset="0" style="stop-color:#CCCCCC"/>
		<stop  offset="0.7668" style="stop-color:#CCCCCC;stop-opacity:0.1413"/>
		<stop  offset="0.893" style="stop-color:#CCCCCC;stop-opacity:0"/>
	</linearGradient>
	
		<line fill="none" stroke="url(#SVGID_9_)" stroke-width="0.3189" stroke-miterlimit="10" x1="64.7" y1="89.5" x2="68.2" y2="85.2"/>
	
		<linearGradient id="SVGID_10_" gradientUnits="userSpaceOnUse" x1="80.15" y1="-391.3781" x2="80.15" y2="-395.2656" gradientTransform="matrix(1 0 0 -1 0 -308)">
		<stop  offset="0" style="stop-color:#CCCCCC"/>
		<stop  offset="0.7668" style="stop-color:#CCCCCC;stop-opacity:0.1413"/>
		<stop  offset="0.893" style="stop-color:#CCCCCC;stop-opacity:0"/>
	</linearGradient>
	
		<line fill="none" stroke="url(#SVGID_10_)" stroke-width="0.3189" stroke-miterlimit="10" x1="81.9" y1="87.1" x2="78.4" y2="83.5"/>
</g>
</svg>
